<?xml version="1.0" standalone="no"?>
<!DOCTYPE svg PUBLIC "-//W3C//DTD SVG 20010904//EN"
 "http://www.w3.org/TR/2001/REC-SVG-20010904/DTD/svg10.dtd">
<svg version="1.0" xmlns="http://www.w3.org/2000/svg"
 width="1810.000000pt" height="1809.000000pt" viewBox="0 0 1810.000000 1809.000000"
 preserveAspectRatio="xMidYMid meet">
<metadata>
Created by potrace 1.16, written by Peter Selinger 2001-2019
</metadata>
<g transform="translate(0.000000,1809.000000) scale(0.100000,-0.100000)"
fill="#000000" stroke="none">
<path d="M8663 17330 c-107 -12 -166 -55 -182 -132 -6 -31 -6 -31 -136 -57
-251 -52 -375 -85 -375 -101 0 -10 -29 -25 -83 -44 -197 -69 -377 -147 -532
-233 -190 -104 -395 -248 -542 -380 -65 -58 -72 -68 -66 -91 6 -25 5 -26 -11
-13 -15 13 -20 12 -41 -11 -21 -23 -22 -27 -8 -40 13 -14 12 -16 -11 -20 -21
-4 -24 -3 -15 8 7 9 7 14 1 14 -13 0 -125 -120 -205 -221 -37 -46 -71 -89 -76
-95 -4 -5 -21 -30 -37 -55 -16 -24 -32 -45 -36 -47 -5 -2 -8 -8 -8 -13 0 -4
-13 -28 -29 -51 -33 -49 -131 -216 -131 -223 0 -2 -21 -48 -48 -102 -135 -277
-234 -612 -258 -871 -4 -40 -10 -74 -13 -77 -4 -2 -63 -20 -131 -40 -69 -20
-148 -47 -177 -60 -103 -47 -193 -161 -193 -247 0 -70 37 -145 92 -188 27 -22
58 -40 68 -40 34 0 30 -17 -17 -81 -176 -239 -374 -591 -473 -838 -101 -254
-185 -564 -227 -837 -25 -168 -27 -200 -28 -524 0 -361 4 -409 51 -670 77
-424 232 -823 451 -1159 100 -155 232 -329 312 -414 57 -60 63 -70 48 -79 -80
-44 -467 -426 -595 -586 -242 -304 -464 -710 -578 -1060 -74 -226 -126 -485
-154 -761 -6 -61 -10 -419 -10 -888 l0 -785 -30 -28 c-101 -94 -334 -205 -526
-251 -27 -6 -107 -19 -179 -29 -96 -12 -129 -20 -127 -30 2 -7 -2 -16 -7 -20
-6 -3 1 -19 19 -38 26 -29 29 -47 4 -22 -8 8 -19 8 -38 0 -18 -7 -33 -7 -46 0
-31 17 -34 11 -6 -11 14 -11 31 -17 38 -13 8 5 9 2 5 -10 -4 -10 -7 -19 -7
-22 0 -2 -7 -1 -15 2 -11 5 -13 2 -9 -10 3 -9 11 -16 18 -16 6 0 5 -4 -3 -9
-12 -8 -12 -12 -2 -25 11 -13 11 -16 -3 -16 -22 0 -20 -17 4 -30 22 -12 24
-18 10 -40 -8 -12 -12 -11 -32 7 -30 27 -59 35 -78 22 -12 -8 -11 -9 5 -5 11
3 29 -2 40 -10 17 -13 18 -16 5 -25 -12 -8 -10 -9 8 -4 13 4 22 2 22 -4 0 -6
-6 -11 -12 -11 -9 0 -8 -3 2 -9 8 -6 18 -7 22 -4 11 6 38 -16 38 -31 0 -6 -7
-3 -14 7 -7 9 -16 17 -20 17 -11 0 -6 -28 7 -34 6 -3 1 -3 -11 0 -21 5 -23 4
-13 -15 7 -12 17 -21 23 -21 6 0 8 -3 5 -6 -4 -4 -13 -2 -20 5 -10 8 -22 8
-46 0 -34 -12 -37 -19 -19 -37 24 -24 -7 -11 -33 14 -16 16 -25 33 -22 43 3
10 2 12 -4 4 -6 -8 -14 -6 -31 7 -27 23 -28 33 -2 25 13 -4 20 -2 20 6 0 8 7
5 20 -6 11 -10 20 -13 20 -8 0 16 -28 36 -39 28 -6 -3 -20 -1 -32 6 -17 9 -20
8 -14 -2 6 -9 3 -11 -8 -6 -23 9 -21 -6 3 -28 11 -10 20 -22 20 -27 0 -14 -22
-9 -36 10 -13 16 -14 16 -8 -3 5 -15 -2 -11 -29 14 -36 34 -54 29 -20 -4 12
-12 13 -19 4 -24 -8 -5 -6 -13 9 -26 11 -10 23 -15 27 -12 4 4 -2 14 -13 22
-10 8 -14 15 -7 15 6 0 29 -20 51 -45 43 -49 53 -53 77 -29 15 16 16 16 13 -2
-2 -14 3 -19 21 -19 13 0 25 -6 27 -13 1 -7 0 -8 -3 -2 -7 15 -23 12 -23 -5 0
-8 6 -15 14 -15 20 0 27 -37 9 -44 -8 -4 -29 4 -46 16 -22 16 -29 18 -25 7 10
-25 -50 -17 -68 10 -23 33 -56 61 -71 61 -7 0 -13 7 -13 15 0 8 -4 15 -10 15
-5 0 -7 -8 -3 -17 4 -11 -9 -4 -32 17 -35 33 -37 33 -30 10 8 -25 8 -25 -14
-6 -11 11 -21 14 -21 9 0 -16 28 -36 40 -28 12 7 42 -19 33 -29 -4 -3 -2 -6 3
-6 6 0 15 5 22 12 7 7 12 9 12 4 0 -4 -7 -15 -16 -23 -13 -14 -17 -14 -25 -2
-5 8 -9 18 -9 22 0 5 -8 6 -19 2 -10 -3 -24 1 -31 10 -7 8 -17 15 -23 15 -5 0
-2 -9 8 -20 14 -16 15 -20 4 -20 -8 0 -20 5 -27 12 -7 7 -12 8 -12 2 0 -17 41
-37 53 -25 6 6 16 11 21 11 6 0 -2 -11 -18 -25 -16 -14 -30 -25 -32 -25 -12 0
-54 25 -54 32 0 11 17 10 25 -2 3 -5 10 -10 15 -10 5 0 -12 23 -37 50 -25 28
-50 50 -55 50 -5 0 -6 -4 -3 -10 3 -5 -3 -10 -14 -10 -12 0 -21 -4 -21 -10 0
-16 -20 -12 -53 12 -40 29 -66 44 -97 58 -30 13 -71 55 -63 64 4 3 2 6 -4 6
-20 0 -65 51 -59 66 4 12 2 15 -9 10 -8 -3 -27 6 -42 21 -16 14 -49 39 -76 55
-26 16 -45 34 -42 39 4 5 -1 6 -9 3 -9 -3 -16 -1 -16 6 0 6 -3 9 -8 6 -9 -6
-114 59 -106 66 3 3 -2 8 -11 12 -9 3 -13 2 -10 -4 10 -16 -10 -11 -31 8 -11
9 -24 18 -29 19 -16 4 -118 48 -136 58 -26 16 -78 95 -114 172 -80 168 -112
364 -94 563 11 119 72 287 144 395 111 167 315 318 433 320 23 1 43 5 44 11 1
5 21 21 43 35 54 34 79 86 72 148 -4 37 -13 52 -45 82 -113 106 -321 68 -586
-108 -333 -220 -540 -631 -523 -1039 l5 -120 -44 -44 c-58 -58 -78 -112 -71
-191 10 -116 80 -213 165 -229 45 -8 62 -3 62 16 0 9 5 12 10 9 6 -4 10 -15 8
-25 -2 -10 5 -27 15 -38 18 -20 18 -21 -27 -62 -57 -53 -81 -111 -73 -183 7
-63 24 -100 78 -161 54 -61 110 -90 162 -83 55 7 87 40 87 89 0 50 13 74 52
94 38 20 110 14 172 -14 22 -11 56 -25 75 -33 30 -11 32 -14 15 -21 -14 -6
-12 -7 8 -3 16 3 32 -1 42 -10 8 -8 19 -15 24 -15 15 0 87 -61 84 -72 -1 -5 2
-7 8 -3 10 6 68 -78 90 -134 19 -48 18 -156 -4 -216 -21 -62 -96 -141 -146
-155 -56 -16 -193 -13 -216 5 -34 26 -47 19 -41 -22 16 -99 108 -218 252 -326
44 -33 82 -62 84 -63 2 -2 -26 -52 -62 -111 -78 -128 -117 -223 -154 -370 -23
-94 -27 -128 -27 -268 0 -90 6 -186 13 -220 58 -280 221 -522 437 -648 197
-116 389 -143 583 -82 73 24 97 37 174 98 l35 28 74 -31 c86 -37 228 -75 315
-85 70 -8 64 2 79 -130 23 -214 184 -479 375 -616 66 -47 112 -85 92 -74 -7 3
-13 1 -13 -4 0 -6 5 -11 12 -11 6 0 9 -3 5 -6 -9 -9 -67 42 -59 51 4 5 1 5 -6
1 -7 -4 -10 -12 -7 -17 7 -11 -23 -25 -33 -15 -3 4 0 11 8 16 22 14 -6 13 -32
-1 -16 -9 -26 -7 -48 10 -27 19 -28 19 -23 1 3 -11 9 -20 14 -20 5 0 9 -5 9
-12 0 -9 -3 -9 -12 0 -17 17 -25 15 -31 -7 -4 -18 19 -51 36 -51 15 0 5 18
-16 28 -15 7 -17 11 -6 11 21 1 59 -40 42 -46 -7 -2 -9 -11 -6 -19 4 -11 8
-12 19 -3 12 9 17 8 28 -6 8 -11 20 -16 29 -12 11 4 14 2 10 -9 -7 -18 -8 -18
-41 3 l-27 17 19 -22 c20 -23 84 -33 70 -11 -3 6 4 5 17 -3 23 -12 22 -13 -26
-16 -27 -2 -54 -7 -59 -12 -5 -5 226 -10 555 -10 310 -1 1048 -3 1639 -5 591
-2 1134 1 1206 6 456 32 839 181 1121 435 155 141 323 372 427 587 33 70 64
127 67 127 4 0 9 -14 13 -30 11 -58 107 -245 184 -359 48 -72 120 -160 192
-234 156 -163 269 -245 460 -336 230 -109 471 -172 735 -191 183 -14 774 -8
828 7 29 8 36 8 28 0 -7 -9 206 -12 867 -11 1209 2 2157 7 2095 11 -29 2 -53
8 -53 13 0 5 7 7 15 4 20 -8 19 5 -2 30 l-18 20 30 -20 c17 -11 41 -21 55 -21
14 -1 20 1 13 4 -7 2 -9 12 -6 21 6 15 5 15 -11 3 -13 -11 -19 -12 -29 -2 -9
10 -8 11 8 5 19 -7 18 -6 -2 18 -26 28 -30 43 -8 34 8 -3 26 6 40 20 33 33 32
45 -1 14 -19 -19 -27 -22 -33 -11 -6 9 -11 10 -15 2 -10 -15 -23 -14 -29 3 -4
10 1 12 16 9 18 -5 20 -3 10 8 -18 18 -16 30 2 23 8 -4 15 -12 15 -20 0 -8 5
-14 10 -14 6 0 10 7 10 15 0 8 4 15 10 15 6 0 5 10 -2 25 -6 13 -15 22 -21 18
-5 -3 -4 -9 4 -14 7 -4 10 -11 7 -15 -10 -9 -39 22 -30 31 4 5 -3 6 -14 3 -12
-3 -28 -1 -35 4 -11 8 -10 9 4 4 9 -3 17 -1 17 4 0 16 -363 13 -380 -3 -8 -6
28 33 80 88 183 193 268 364 288 582 l7 78 60 7 c80 10 222 51 317 92 l77 33
38 -39 c75 -77 200 -118 358 -118 195 0 350 62 522 207 125 105 249 303 292
463 86 318 24 679 -165 973 -24 37 -44 71 -44 75 0 4 26 23 58 42 112 68 242
218 276 318 14 43 11 78 -7 64 -18 -15 -97 -26 -97 -14 0 6 8 8 18 5 12 -3 19
1 19 11 0 8 -4 13 -8 10 -13 -8 -49 15 -45 29 1 6 1 8 -2 4 -2 -5 -17 4 -33
19 -19 18 -35 25 -48 21 -12 -3 -19 -1 -15 4 3 5 -4 9 -15 9 -15 0 -19 5 -14
16 5 14 3 15 -15 5 -12 -7 -22 -17 -22 -23 0 -6 -12 -1 -26 13 -15 14 -23 31
-21 41 3 10 2 18 -3 18 -7 0 -19 27 -25 55 -1 6 -5 18 -10 28 -4 9 -5 24 -2
32 4 8 2 17 -2 20 -9 5 -21 -27 -21 -59 0 -10 7 -24 16 -31 14 -9 14 -16 5
-33 -10 -18 -9 -22 4 -22 10 0 13 5 9 12 -4 7 -3 8 4 4 17 -10 15 -33 -4 -40
-22 -8 -24 -8 -21 5 1 6 -4 14 -11 16 -8 3 -10 -1 -5 -14 3 -10 3 -15 -1 -11
-4 3 -8 12 -10 20 -1 7 -6 19 -11 27 -5 10 -4 16 4 19 9 3 9 7 0 19 -25 29 4
183 34 183 6 0 8 3 4 6 -8 9 43 75 53 69 5 -3 10 0 12 7 5 15 52 -18 68 -47
l11 -20 -7 20 c-4 11 -6 28 -6 38 0 9 -3 17 -9 17 -5 0 -9 -6 -9 -12 0 -7 -7
-4 -16 7 -8 11 -21 19 -27 17 -7 -2 -4 4 5 14 15 16 19 15 53 -6 20 -13 40
-19 44 -14 10 15 63 16 72 2 7 -10 11 -10 21 0 9 9 9 12 -1 12 -11 0 -11 3 0
17 12 14 12 16 0 8 -9 -5 -12 -4 -7 3 6 11 62 10 96 -1 43 -15 71 -17 65 -6
-4 6 4 3 19 -6 14 -10 26 -22 26 -27 0 -5 5 -6 10 -3 8 5 7 11 -1 21 -9 11 -8
14 5 14 9 0 16 4 16 10 0 5 11 9 25 8 14 -1 25 -8 25 -15 0 -7 4 -13 9 -13 5
0 17 -7 26 -16 8 -9 32 -18 53 -21 67 -8 166 76 213 183 41 92 7 218 -72 262
-34 20 -35 22 -9 50 17 18 25 20 40 12 23 -12 76 7 127 46 57 44 95 141 94
245 0 68 -18 111 -68 165 l-36 39 -2 150 c-1 116 -7 173 -24 250 -97 424 -356
734 -726 865 -125 45 -250 52 -314 18 -57 -29 -82 -64 -88 -121 -4 -34 0 -54
16 -84 20 -35 78 -83 101 -83 5 0 10 -9 10 -21 0 -11 23 -45 51 -75 50 -52 77
-69 66 -41 -2 7 6 25 18 41 l23 28 53 -24 c62 -29 102 -61 91 -73 -4 -5 -2 -6
4 -2 17 9 117 -96 172 -182 106 -164 159 -407 133 -606 -26 -193 -79 -341
-168 -464 -32 -44 -51 -58 -128 -95 -49 -23 -106 -49 -125 -56 -19 -8 -75 -38
-125 -68 -49 -30 -95 -55 -102 -55 -7 0 -11 -3 -11 -6 3 -11 -125 -131 -133
-125 -5 3 -6 -2 -3 -10 4 -11 0 -16 -10 -16 -9 0 -16 -6 -16 -13 0 -34 -236
-173 -277 -162 -12 3 -25 1 -28 -5 -4 -6 1 -7 12 -3 15 5 16 4 5 -8 -11 -12
-18 -8 -47 23 -34 36 -44 58 -26 58 5 0 11 -6 14 -12 2 -7 8 -10 12 -6 4 4 0
14 -9 23 -13 14 -18 14 -29 3 -8 -7 -12 -19 -9 -26 6 -18 -5 -15 -28 8 -16 16
-24 18 -47 9 -14 -5 -34 -7 -42 -3 -9 4 -23 8 -31 8 -9 1 -14 9 -12 22 1 12
-4 27 -12 33 -22 19 2 43 28 29 15 -8 18 -7 13 5 -3 9 -1 18 6 21 7 4 -6 4
-28 1 -23 -2 -34 -1 -27 4 10 6 5 17 -21 46 -19 21 -33 44 -30 51 2 6 0 15 -6
19 -6 3 -11 0 -11 -7 0 -7 -9 -3 -22 10 -20 20 -21 24 -8 33 12 9 12 10 -3 5
-12 -4 -29 4 -50 24 -25 23 -28 30 -14 30 33 0 31 29 -6 65 -20 19 -30 35 -24
35 7 0 18 -5 23 -10 12 -12 47 -2 39 11 -3 4 -11 6 -18 3 -7 -2 -21 2 -32 11
-19 14 -19 15 5 6 14 -4 31 -6 38 -4 7 3 20 -1 29 -9 15 -12 15 -11 2 9 -13
22 -20 23 -145 23 -160 0 -273 21 -464 86 -108 37 -155 60 -234 112 -54 36
-111 78 -126 94 l-29 28 -4 853 c-4 931 -1 892 -68 1227 -77 389 -224 752
-449 1111 -187 298 -516 662 -766 846 l-62 47 62 70 c153 174 252 311 353 489
l55 97 549 0 549 0 0 -336 c0 -254 3 -339 13 -349 35 -40 38 -47 32 -75 -9
-39 -22 -46 -46 -24 -23 21 -28 94 -5 75 12 -10 13 -8 9 9 -3 13 -11 19 -19
16 -8 -3 -14 -1 -14 5 0 6 -12 9 -27 7 -24 -3 -28 -7 -27 -35 2 -35 45 -135
69 -159 8 -8 27 -14 42 -12 23 2 34 14 61 70 19 36 35 81 35 100 2 31 0 33
-33 36 -19 2 -38 9 -42 15 -4 7 -8 157 -8 334 l0 321 453 4 c248 2 454 3 457
2 3 -1 4 -50 2 -108 l-3 -106 -107 -2 -107 -2 115 -6 c63 -3 95 -7 70 -9 -25
-2 -66 -3 -92 -1 -62 2 -90 -7 -83 -28 2 -10 6 -52 7 -94 1 -58 5 -75 15 -71
7 3 13 0 13 -5 0 -6 -8 -13 -17 -15 -10 -3 30 -5 88 -6 l106 -1 1 -87 c0 -49
0 -149 0 -223 -5 -1405 -2 -2081 11 -2089 11 -7 11 -9 0 -14 -12 -5 -11 -8 1
-17 11 -9 12 -13 3 -17 -17 -6 -17 -33 0 -33 9 0 8 -3 -2 -9 -9 -6 -10 -14 -5
-22 11 -18 12 -59 2 -59 -4 0 -8 -5 -8 -10 0 -6 13 -8 31 -5 26 5 28 3 17 -9
-7 -8 -17 -12 -21 -9 -5 3 -4 -4 2 -16 13 -24 23 -28 15 -6 -4 8 -2 15 4 15 6
0 13 -6 15 -12 3 -7 4 69 3 170 0 100 3 182 8 182 4 0 5 10 2 23 -4 12 -6 92
-4 177 1 85 2 179 2 208 -1 54 3 60 25 39 11 -9 13 -9 7 1 -10 16 4 15 28 -3
11 -8 15 -15 8 -15 -6 0 8 -18 33 -41 25 -23 49 -38 56 -34 6 4 15 2 19 -5 5
-9 13 -9 25 -3 15 9 8 17 -45 57 -34 26 -73 52 -86 58 -13 6 -24 17 -24 24 0
8 -6 11 -15 8 -21 -8 -30 22 -14 43 13 15 12 15 -9 4 -13 -7 -28 -10 -35 -7
-7 2 -4 5 6 5 16 1 18 11 16 107 -1 72 -5 107 -13 110 -14 5 -17 34 -4 34 4 0
8 5 8 11 0 7 -9 9 -21 6 -15 -4 -18 -2 -10 7 6 7 7 16 3 21 -4 4 3 2 16 -4 12
-6 22 -8 22 -2 0 5 -6 11 -14 14 -8 3 -20 15 -26 26 -9 17 -8 20 5 15 8 -4 15
-10 15 -15 0 -5 5 -9 10 -9 6 0 10 7 10 15 0 8 -6 15 -14 15 -28 0 -29 54 -2
72 7 5 6 8 -4 8 -11 1 -10 4 5 16 17 13 18 16 5 24 -10 7 -11 13 -5 18 6 4 12
67 14 152 3 140 7 160 36 160 6 0 4 -4 -4 -9 -17 -11 3 -25 22 -15 6 4 9 4 5
-1 -11 -11 69 -68 83 -59 7 4 9 3 6 -3 -6 -10 63 -63 82 -63 5 0 14 -6 20 -14
9 -11 -3 -24 -62 -67 -40 -30 -74 -57 -75 -62 -1 -4 -18 -24 -39 -44 -21 -20
-31 -31 -22 -25 12 9 18 9 28 -1 10 -9 11 -8 5 7 -6 15 -3 17 14 12 11 -4 23
-2 27 3 3 6 0 8 -8 5 -8 -3 -18 -1 -21 4 -3 5 8 8 24 6 30 -4 41 9 18 20 -7 3
-3 3 9 1 12 -3 25 0 29 6 5 8 3 9 -6 4 -9 -5 -11 -4 -6 4 4 6 12 9 17 6 5 -4
27 8 49 26 22 18 43 30 46 26 3 -3 5 -76 5 -163 -2 -135 -4 -159 -19 -172 -16
-13 -15 -13 3 -7 15 5 17 3 9 -5 -14 -14 -47 -6 -69 16 -8 9 -15 11 -15 6 0
-5 18 -21 40 -36 39 -25 45 -46 15 -46 -8 0 -17 -4 -20 -10 -4 -7 2 -7 19 0
16 6 27 6 31 0 4 -6 -1 -10 -9 -10 -9 0 -16 -4 -16 -10 0 -15 14 -12 37 9 15
14 23 17 32 8 16 -16 15 15 -1 32 -11 11 -10 13 3 9 12 -5 15 2 13 33 -1 21 2
39 7 39 4 0 10 -44 12 -97 1 -54 3 24 3 172 0 149 -1 240 -3 203 -2 -38 -8
-68 -13 -68 -4 0 -7 24 -5 53 2 36 -2 57 -13 69 -13 16 -13 18 2 24 10 4 15
13 12 20 -3 7 -1 16 4 19 5 3 11 -7 13 -22 2 -16 5 225 6 535 l1 562 63 0 63
0 2 75 3 75 -65 0 -65 0 2 150 2 150 583 3 582 2 0 -137 0 -138 193 0 192 0 1
138 2 137 61 3 61 3 0 133 c0 73 -3 154 -6 180 l-7 46 -107 0 c-59 0 -148 -3
-198 -6 -89 -7 -91 -8 -94 -33 -3 -23 -7 -26 -36 -23 -19 2 -52 16 -75 31 -23
16 -118 72 -212 126 -93 54 -233 135 -310 180 -77 46 -196 115 -265 155 -69
40 -153 90 -187 112 -37 24 -67 37 -75 32 -7 -4 -10 -4 -6 1 11 11 -60 58 -74
49 -7 -5 -8 -3 -3 6 6 10 4 12 -8 7 -9 -3 -19 -1 -23 5 -5 7 -2 8 7 3 8 -5 -8
12 -34 38 -43 42 -53 47 -93 47 -36 0 -45 -3 -41 -14 8 -19 19 -15 -643 -235
-713 -237 -946 -312 -1450 -466 -24 -8 -45 -13 -46 -12 -1 1 20 67 48 147 87
256 137 494 169 813 17 178 6 636 -20 802 -39 250 -107 535 -168 704 -74 204
-87 235 -172 408 -98 198 -191 355 -323 546 -49 70 -87 131 -83 136 3 5 18 12
33 16 40 8 99 60 124 108 28 53 31 155 5 207 -27 56 -86 111 -152 141 -51 24
-207 73 -296 93 -25 5 -27 10 -39 103 -62 505 -298 1054 -627 1463 -332 413
-831 760 -1350 940 -120 41 -153 57 -153 71 0 14 -23 23 -127 48 -204 48 -343
73 -380 69 -34 -4 -34 -4 -28 29 9 48 -25 100 -84 127 -44 20 -63 21 -416 22
-203 1 -402 -2 -442 -6z m-1193 -935 c0 -3 -4 -13 -10 -23 -27 -50 -80 -199
-80 -227 0 -8 -4 -23 -10 -33 -10 -17 -33 -96 -70 -237 -56 -215 -98 -563
-110 -914 -6 -173 -12 -266 -20 -271 -6 -4 -54 -12 -108 -19 -53 -7 -236 -35
-406 -62 -170 -27 -315 -49 -322 -49 -8 0 -14 10 -14 23 0 18 35 192 70 347
17 77 122 352 175 460 48 99 139 263 166 302 11 14 19 33 19 41 0 9 8 22 18
29 10 7 56 63 104 123 120 154 355 379 480 459 18 12 25 23 21 33 -4 10 -2 14
4 10 6 -4 22 -3 35 2 26 11 58 14 58 6z m2015 -2525 c688 -32 658 -30 1090
-71 475 -44 1073 -132 1515 -222 l65 -13 68 -94 c105 -148 258 -426 335 -615
102 -247 173 -502 211 -760 50 -335 42 -793 -20 -1075 -55 -254 -128 -481
-217 -672 -73 -157 -266 -460 -372 -582 -87 -102 -291 -311 -356 -366 -127
-108 -154 -132 -154 -140 0 -5 45 -38 100 -75 96 -64 372 -265 395 -289 7 -6
27 -22 45 -36 87 -66 295 -267 385 -374 183 -216 280 -364 397 -601 135 -276
215 -529 270 -860 21 -125 22 -167 28 -1170 7 -1123 4 -1061 60 -1248 56 -184
187 -398 328 -535 163 -159 387 -282 617 -341 44 -11 150 -32 235 -46 367 -61
530 -108 710 -202 118 -62 158 -91 248 -177 233 -225 317 -535 225 -828 -8
-27 -19 -48 -24 -48 -6 0 -8 -4 -5 -9 9 -14 -5 -42 -17 -34 -5 3 -7 1 -4 -5 4
-5 4 -18 1 -27 -6 -13 -9 -14 -16 -3 -7 9 -8 8 -4 -6 11 -32 -79 -134 -159
-181 -60 -36 -159 -58 -219 -50 -57 7 -119 38 -140 70 -12 19 -11 24 16 54 18
21 33 30 39 24 6 -6 2 -16 -11 -28 -25 -23 -25 -31 0 -38 14 -3 20 0 22 11 0
10 2 22 2 28 2 22 30 64 42 64 7 0 14 5 16 12 8 24 27 -3 22 -30 -8 -39 15
-56 67 -49 59 8 106 44 136 105 34 69 43 121 31 180 -5 26 -10 57 -10 69 0 13
-7 28 -14 34 -8 7 -12 19 -9 29 15 46 -99 175 -200 227 -71 37 -186 72 -258
78 -171 15 -204 14 -191 -6 3 -5 -2 -6 -10 -3 -10 4 -16 1 -16 -9 0 -8 6 -17
13 -20 6 -2 -40 -7 -103 -11 -106 -7 -205 -23 -490 -77 -155 -29 -373 -36
-480 -14 -270 55 -564 196 -780 375 -181 150 -347 364 -460 592 -51 105 -73
163 -147 403 l-18 60 -39 -2 c-91 -6 -212 -92 -259 -185 -30 -60 -34 -112 -16
-231 44 -299 170 -603 341 -824 27 -35 46 -63 44 -63 -2 0 30 -33 72 -72 42
-40 81 -78 87 -84 5 -6 37 -31 70 -55 56 -41 94 -65 185 -117 84 -46 231 -94
460 -151 288 -70 384 -103 477 -163 82 -54 173 -135 173 -154 0 -8 4 -14 9
-14 13 0 75 -108 101 -176 33 -84 34 -235 1 -317 -12 -31 -27 -54 -32 -51 -6
3 -10 0 -8 -7 3 -30 -2 -40 -26 -49 -14 -5 -25 -15 -25 -22 0 -9 3 -9 10 2 5
8 11 12 14 9 3 -3 -6 -16 -21 -30 -15 -13 -22 -17 -15 -7 9 12 10 18 2 23 -8
5 -7 12 4 23 12 14 12 20 1 36 -8 10 -19 15 -26 10 -7 -4 -23 -8 -36 -10 -24
-2 -25 0 -38 77 -7 47 -60 126 -99 150 -17 10 -67 31 -111 46 -69 24 -95 28
-190 27 -96 0 -131 -6 -273 -42 -304 -79 -488 -98 -651 -67 -190 36 -353 97
-482 180 -71 46 -74 49 -148 165 -27 41 -82 109 -122 150 -41 41 -108 118
-150 170 -227 286 -347 528 -498 1013 -39 125 -83 247 -98 271 -72 120 -208
92 -265 -53 -19 -49 -22 -78 -23 -221 -3 -229 11 -600 25 -695 14 -97 44 -210
76 -287 29 -68 28 -63 7 -65 -38 -3 -168 -65 -230 -109 -36 -25 -85 -73 -110
-105 -25 -32 -50 -56 -56 -52 -6 3 -7 1 -4 -4 4 -6 -5 -37 -20 -69 -25 -54
-28 -69 -28 -179 0 -103 3 -125 21 -155 29 -50 46 -49 73 7 39 81 109 180 161
226 96 86 274 157 394 157 65 0 172 -23 230 -49 52 -22 135 -97 177 -157 94
-137 93 -360 -3 -503 -42 -63 -123 -138 -180 -167 -66 -34 -183 -64 -247 -64
-71 0 -62 8 12 11 48 2 57 5 52 18 -5 13 -4 14 6 4 16 -16 43 -17 33 -2 -4 8
1 9 17 4 17 -4 20 -3 10 3 -8 6 -11 17 -8 26 5 11 1 16 -13 16 -24 0 -28 37
-4 42 13 3 12 7 -7 32 l-22 28 24 -7 c22 -7 23 -7 9 10 -14 17 -13 18 2 12 17
-6 46 18 34 30 -3 3 -6 1 -6 -5 0 -7 -5 -12 -11 -12 -5 0 -7 5 -4 10 3 6 -2
10 -12 11 -10 0 -5 5 12 10 116 34 189 200 136 314 -39 85 -107 129 -196 129
-154 -2 -259 -126 -227 -266 7 -29 13 -60 15 -68 3 -20 -108 -74 -217 -105
-251 -71 -519 16 -746 244 -179 180 -317 460 -389 791 -40 181 -76 475 -91
730 -7 121 -17 215 -27 248 -39 128 -194 205 -373 187 -89 -10 -159 -38 -214
-86 -73 -64 -83 -97 -96 -304 -19 -315 -67 -641 -129 -886 -95 -368 -275 -650
-521 -814 -223 -148 -476 -175 -697 -75 -38 17 -78 38 -91 46 l-22 15 21 41
c58 113 -7 255 -133 293 -62 18 -85 19 -146 3 -60 -15 -126 -79 -142 -140 -7
-23 -16 -51 -21 -60 -12 -23 -11 -37 1 -18 7 11 10 6 10 -20 0 -37 30 -113 49
-124 6 -4 11 -12 11 -17 0 -6 -5 -7 -12 -3 -7 4 -8 3 -4 -4 4 -6 12 -9 19 -7
15 6 64 -31 54 -41 -4 -4 -14 1 -22 12 -14 18 -14 18 -15 0 0 -10 8 -26 18
-35 10 -9 18 -28 17 -43 0 -25 -1 -26 -18 -10 -17 15 -17 17 -1 22 24 9 2 22
-23 14 -15 -5 -15 -4 -3 5 13 9 12 11 -6 11 -17 0 -20 5 -16 25 5 30 -3 32
-18 4 -9 -16 -8 -25 6 -40 12 -13 13 -19 4 -19 -7 0 -10 -8 -7 -19 3 -14 1
-18 -9 -14 -9 3 -12 0 -9 -9 4 -9 -4 -19 -21 -27 -26 -11 -30 -9 -75 35 -26
26 -45 52 -42 60 2 7 -5 17 -16 24 -24 13 -28 30 -6 30 8 0 15 -4 15 -10 0 -5
5 -10 12 -10 9 0 9 3 0 12 -17 17 -15 33 3 18 13 -11 14 -10 9 4 -7 19 -30 21
-40 4 -5 -7 -10 -4 -16 11 -4 12 -12 20 -17 17 -18 -12 -40 108 -37 204 2 78
7 106 29 153 38 83 125 170 211 212 120 58 220 68 348 36 91 -24 159 -57 236
-115 84 -65 121 -107 173 -199 71 -124 107 -105 116 62 9 157 -35 269 -151
387 -61 62 -89 82 -169 119 -53 25 -106 45 -117 45 -25 0 -25 4 5 78 51 126
73 281 85 607 11 289 1 522 -25 595 -36 101 -120 143 -209 106 -53 -22 -83
-86 -138 -294 -63 -240 -116 -395 -188 -554 -72 -159 -205 -364 -332 -512 -38
-44 -68 -86 -68 -94 0 -9 -6 -12 -17 -8 -10 4 -14 4 -10 0 9 -10 -23 -45 -35
-38 -4 3 -7 1 -6 -4 2 -5 -13 -27 -32 -48 -35 -39 -101 -134 -132 -192 -36
-68 -281 -196 -466 -244 -107 -28 -131 -31 -282 -32 -137 0 -180 3 -255 22
-283 69 -348 83 -427 92 -112 13 -204 0 -306 -42 -125 -53 -172 -117 -172
-237 0 -28 -4 -51 -10 -51 -5 0 -10 4 -10 9 0 5 -8 7 -19 4 -10 -3 -22 0 -25
6 -4 6 -13 11 -19 11 -7 0 -6 -4 3 -10 12 -8 12 -12 2 -18 -10 -7 -10 -11 3
-22 8 -7 15 -17 15 -23 0 -5 -11 2 -25 17 -14 15 -30 24 -37 20 -7 -4 -8 -3
-4 4 4 6 -5 18 -19 28 -36 24 -65 124 -65 228 0 121 40 233 120 341 62 83 180
182 202 169 7 -4 10 -4 6 1 -4 4 16 20 45 36 93 48 250 96 512 155 140 31 343
114 449 182 85 55 217 165 280 233 239 258 435 733 424 1024 -5 119 -21 157
-97 228 -63 59 -121 86 -183 87 l-47 0 -21 -72 c-12 -40 -33 -111 -47 -158
-104 -349 -388 -729 -698 -932 -112 -74 -344 -188 -451 -221 -204 -64 -394
-74 -599 -32 -267 55 -396 76 -515 84 -69 4 -107 9 -85 10 22 2 33 5 25 8 -8
3 -18 10 -21 15 -9 15 -125 26 -214 21 -167 -8 -291 -61 -411 -175 -85 -81
-108 -120 -127 -210 -31 -150 13 -277 113 -328 77 -39 127 -23 132 44 4 46 51
40 92 -12 20 -25 20 -25 27 -3 5 11 14 21 21 21 10 0 10 -2 1 -8 -7 -4 -10
-17 -6 -30 3 -12 9 -19 14 -16 12 7 11 0 -3 -31 -6 -14 -18 -25 -25 -25 -8 0
-12 -4 -8 -9 9 -15 -48 -49 -101 -61 -113 -26 -234 19 -327 120 -31 35 -55 65
-52 68 3 3 -4 12 -16 20 -11 8 -18 20 -15 29 3 8 2 12 -3 9 -13 -9 -61 107
-78 192 -29 140 1 346 74 499 50 106 184 278 210 269 8 -3 12 -2 9 3 -7 11 95
91 186 144 76 45 215 103 328 136 102 31 192 49 360 71 186 26 258 40 368 75
412 130 716 438 860 870 17 50 35 133 41 185 7 59 13 456 15 1055 5 1048 5
1047 66 1326 64 292 209 671 327 858 189 297 299 437 494 634 92 92 172 167
178 167 6 0 23 13 38 28 16 15 50 46 78 67 27 22 54 44 60 48 21 17 208 144
295 200 49 32 90 62 90 66 0 5 -60 60 -132 123 -165 143 -290 267 -281 281 3
5 1 7 -4 4 -14 -9 -37 19 -28 33 3 5 2 10 -4 10 -15 0 -60 46 -117 120 -72 92
-154 214 -154 228 0 7 -4 12 -10 12 -14 0 -202 387 -238 490 -17 47 -42 116
-57 154 -31 82 -77 282 -107 472 -20 122 -23 175 -23 439 1 330 6 391 61 645
58 266 153 550 249 739 78 156 264 465 315 523 23 26 41 32 225 68 432 88
1167 186 1665 224 626 48 1254 65 1665 46z m5777 -2885 c13 -13 -75 -264 -147
-420 -7 -16 -23 -55 -35 -85 -11 -30 -30 -74 -40 -96 -10 -23 -22 -53 -25 -66
l-6 -25 -875 -7 c-482 -3 -909 -9 -950 -13 l-75 -6 11 24 c10 21 22 26 83 36
96 16 987 302 1767 568 297 101 284 97 292 90z m250 -76 c50 -28 119 -68 152
-89 249 -154 694 -410 856 -493 125 -64 131 -67 103 -62 -10 2 -100 6 -200 9
-139 4 -183 2 -184 -7 0 -9 -2 -9 -6 1 -4 9 -94 12 -403 12 l-398 0 -6 73 c-8
92 -26 474 -26 550 0 31 4 57 10 57 5 0 51 -23 102 -51z m-192 -96 c0 -43 5
-121 10 -173 5 -52 7 -96 5 -98 -8 -8 -46 11 -74 38 -44 40 -38 19 8 -31 l39
-42 -85 -80 c-46 -44 -91 -93 -99 -109 -17 -33 -41 -32 -36 1 2 12 15 47 29
79 14 31 34 86 45 122 11 36 32 88 48 115 15 28 40 96 55 153 35 129 55 138
55 25z m20 -382 c0 -26 3 -69 6 -95 l7 -46 -109 0 -108 0 27 28 c15 16 24 32
20 37 -5 4 -3 5 3 2 6 -3 39 23 74 58 36 36 68 65 72 65 4 0 8 -22 8 -49z
m-2089 -220 c13 -5 48 -34 78 -65 29 -31 60 -56 68 -56 8 0 12 -4 8 -9 -3 -6
3 -14 12 -20 13 -7 -30 -10 -149 -11 -106 0 -168 4 -168 10 0 6 5 10 10 10 6
0 41 29 78 65 36 36 62 65 56 65 -7 0 -17 -7 -24 -15 -7 -8 -17 -12 -23 -8 -6
4 -7 1 -2 -7 5 -8 3 -11 -6 -8 -8 3 -41 -18 -74 -47 -61 -53 -95 -72 -95 -54
0 5 18 46 40 90 l41 80 63 -5 c35 -3 74 -10 87 -15z m349 13 c0 -4 -32 -41
-70 -84 -68 -75 -69 -78 -40 -74 20 4 48 25 86 65 32 32 62 59 69 59 6 0 45
-30 86 -66 41 -37 76 -68 78 -70 2 -2 -75 -4 -172 -4 l-177 0 -23 27 c-12 15
-43 50 -69 79 -27 28 -48 56 -48 62 0 9 41 12 140 12 77 0 140 -3 140 -6z
m383 -2 c8 -2 -123 -157 -133 -157 -6 0 -150 150 -150 156 0 4 267 5 283 1z
m389 1 c3 -2 -8 -18 -25 -36 -18 -18 -47 -49 -65 -70 -18 -20 -39 -37 -46 -37
-14 0 -156 132 -156 145 0 6 279 5 292 -2z m368 -6 c0 -15 -127 -147 -141
-147 -11 0 -65 54 -107 107 -40 51 -41 50 126 52 96 1 122 -2 122 -12z m550 3
c0 -3 -15 -13 -32 -23 -53 -29 -101 -75 -92 -89 4 -7 3 -10 -1 -5 -5 4 -19 -3
-32 -15 -21 -19 -26 -20 -34 -8 -5 8 -7 31 -4 50 2 19 5 47 5 62 0 23 5 27 33
31 44 6 157 4 157 -3z m845 -42 c-28 -29 -53 -54 -57 -56 -3 -2 -17 -12 -29
-23 -20 -17 -21 -22 -9 -29 8 -6 17 -10 20 -10 3 0 41 35 84 77 70 69 80 75
98 64 11 -7 17 -8 13 -2 -9 16 4 13 21 -4 9 -8 13 -19 10 -24 -3 -4 28 -33 70
-62 62 -45 71 -54 52 -56 -61 -6 -396 -7 -392 -1 2 4 0 9 -6 13 -5 3 -10 1
-10 -4 0 -7 -63 -11 -190 -11 -104 0 -190 3 -190 8 0 12 144 152 157 152 7 0
29 -16 50 -35 40 -36 167 -128 146 -105 -19 21 -16 35 4 19 11 -9 9 -2 -6 19
-13 18 -29 31 -36 28 -7 -2 -21 5 -32 17 l-18 22 23 -19 c12 -11 22 -15 22
-10 0 5 -19 23 -41 39 l-41 30 99 6 c54 3 129 6 168 7 l69 2 -49 -52z m425 31
c13 -7 13 -8 -1 -9 -21 0 -26 -13 -35 -89 -6 -58 -22 -78 -39 -51 -4 6 -12 9
-18 8 -16 -4 -147 74 -141 83 2 4 -6 10 -18 12 -20 4 -20 4 -3 6 11 0 36 -13
55 -29 33 -28 100 -73 100 -66 0 3 -142 116 -173 138 -14 11 8 12 120 10 76
-2 145 -8 153 -13z m-1542 -61 l-3 -73 -38 -1 c-20 -1 -35 1 -33 4 3 2 -18 29
-47 58 -36 38 -54 50 -60 41 -6 -8 -7 -7 -4 4 3 9 0 22 -6 28 -8 8 16 11 91
11 l103 0 -3 -72z m410 60 c9 -9 12 -9 12 3 1 7 8 1 17 -16 8 -16 26 -41 39
-55 12 -14 27 -37 33 -52 10 -26 9 -28 -14 -28 -14 0 -25 -4 -25 -8 0 -5 13
-8 29 -7 18 1 32 -5 40 -17 7 -11 7 -18 1 -18 -5 0 -10 5 -10 11 0 7 -18 9
-50 5 -29 -3 -50 -1 -50 4 0 6 7 10 15 10 8 0 15 5 15 10 0 6 -7 10 -15 10 -8
0 -15 8 -15 18 0 13 -2 14 -9 3 -6 -10 -13 -11 -29 -2 -32 17 -37 13 -11 -8
13 -10 29 -17 35 -14 8 3 11 -5 10 -21 0 -14 -3 -26 -5 -26 -7 0 -41 43 -41
53 0 5 -8 6 -17 2 -32 -12 -117 -18 -218 -15 -48 2 -49 2 -20 12 17 6 45 20
63 30 41 23 57 23 90 0 38 -26 57 -32 73 -21 12 7 12 9 -1 9 -10 0 -7 5 8 16
20 14 33 52 13 40 -5 -3 -11 3 -14 14 -4 16 -2 18 13 10 28 -15 36 -12 14 5
-15 12 -16 16 -5 24 7 5 10 14 7 20 -9 15 7 14 22 -1z m270 3 c-4 -11 -77 -90
-102 -110 -15 -13 -23 -8 -77 50 -32 35 -59 65 -59 66 0 2 54 3 121 3 66 0
119 -4 117 -9z m-1158 -133 c25 -22 40 -37 34 -34 -6 3 -72 6 -147 7 -87 0
-137 5 -137 11 0 6 28 41 63 78 l62 67 40 -44 c22 -25 60 -63 85 -85z m281
-26 c-58 -2 -121 0 -140 3 l-34 6 52 53 c28 28 51 55 51 59 0 4 5 13 11 20 9
10 29 -5 89 -63 l77 -75 -106 -3z m-701 73 l75 -75 -143 0 c-78 0 -142 3 -142
6 0 12 114 144 124 144 6 0 45 -34 86 -75z m1240 -330 l0 -105 -85 0 c-48 0
-85 4 -85 10 0 5 7 7 17 3 14 -5 15 -1 10 34 -7 40 -6 42 58 102 36 34 70 61
75 61 6 0 10 -44 10 -105z m5 -375 c0 -88 -1 -95 -20 -95 -11 0 -27 8 -35 18
-8 10 -55 46 -104 80 -49 34 -91 67 -93 74 -3 9 25 13 104 16 59 2 117 3 128
3 19 -1 20 -8 20 -96z m-227 30 c24 -12 40 -25 37 -30 -4 -6 -1 -10 6 -10 19
0 79 -43 79 -57 0 -7 7 -10 17 -6 11 4 14 3 9 -5 -4 -7 -1 -12 9 -12 9 0 14
-4 11 -8 -3 -5 9 -17 26 -27 26 -15 28 -19 15 -27 -10 -5 -14 -15 -10 -25 5
-12 3 -14 -7 -8 -10 6 -12 4 -7 -9 6 -14 3 -15 -13 -6 -12 6 -19 7 -18 1 2 -5
-21 -30 -50 -55 -30 -25 -48 -46 -42 -46 10 0 10 -4 0 -15 -21 -25 -3 -17 35
16 19 17 32 35 29 41 -3 5 0 8 8 6 7 -1 27 7 45 20 17 12 35 22 40 22 12 0 8
-303 -5 -308 -6 -2 -22 6 -34 18 -13 12 -43 36 -68 53 -25 17 -58 44 -75 59
-27 26 -29 30 -13 41 10 8 13 18 9 26 -6 10 -10 10 -16 2 -5 -9 -10 -9 -21 0
-11 9 -14 8 -15 -7 0 -11 -3 -14 -6 -6 -2 6 -12 12 -20 12 -9 0 -13 6 -9 15 3
8 6 81 7 162 0 96 5 153 12 162 8 9 8 12 1 8 -6 -3 -11 0 -11 8 0 18 -5 19 45
-5z m19 -418 c7 -4 9 -13 4 -21 -5 -8 -14 -10 -21 -6 -9 6 -9 9 1 16 11 7 10
9 -3 9 -31 0 -30 -20 3 -38 17 -9 62 -39 98 -66 36 -28 60 -42 52 -33 -16 20
-3 22 22 3 13 -10 15 -15 5 -18 -8 -3 -5 -9 10 -17 23 -12 23 -13 5 -34 -10
-11 -12 -17 -5 -13 6 4 12 2 12 -4 0 -14 -25 -40 -39 -40 -6 0 -11 -5 -11 -11
0 -5 -4 -8 -9 -4 -5 3 -13 0 -16 -6 -4 -5 -14 -8 -22 -5 -8 3 -12 2 -9 -2 7
-12 -7 -29 -33 -37 -18 -5 -22 -4 -16 5 5 8 4 11 -3 6 -6 -4 -8 -14 -5 -23 5
-13 2 -15 -11 -10 -10 4 -27 0 -39 -8 -12 -8 -26 -15 -32 -15 -15 0 -8 362 8
372 15 10 39 10 54 0z m208 -401 c0 -88 -3 -163 -7 -166 -3 -4 -41 21 -83 54
-42 34 -90 68 -106 77 -37 19 -32 29 46 90 33 25 59 51 57 56 -1 5 2 7 7 4 5
-4 22 5 38 19 15 13 33 25 38 25 6 0 10 -59 10 -159z m-11727 -6146 c84 -20
222 -74 228 -90 3 -7 -15 -41 -39 -76 -25 -35 -52 -79 -61 -96 -9 -18 -23 -33
-31 -33 -20 0 -226 66 -287 92 -57 24 -77 66 -58 122 27 84 114 113 248 81z
m11030 -11 c50 -32 58 -125 15 -166 -37 -33 -263 -118 -316 -118 -9 0 -29 24
-45 53 -16 28 -42 74 -57 101 -32 56 -36 51 72 96 130 55 275 69 331 34z"/>
<path d="M8885 12934 c-258 -38 -497 -123 -672 -237 -232 -151 -439 -409 -546
-682 -107 -272 -114 -658 -18 -938 72 -209 186 -381 380 -571 174 -172 434
-314 676 -370 124 -29 327 -49 430 -42 187 11 446 85 628 178 206 106 441 321
533 488 10 19 24 42 30 50 55 74 138 289 169 436 38 182 28 461 -21 646 -99
371 -358 697 -704 886 -77 42 -306 117 -420 137 -91 16 -401 28 -465 19z"/>
<path d="M8920 8003 c-141 -13 -322 -52 -459 -100 -452 -155 -818 -525 -971
-981 -59 -178 -73 -268 -74 -477 0 -205 17 -334 69 -517 75 -263 277 -561 502
-741 173 -138 318 -217 519 -285 209 -70 309 -86 544 -86 223 -1 292 9 477 64
561 166 975 580 1112 1111 44 171 54 268 48 477 -4 166 -9 214 -31 307 -45
191 -103 344 -160 428 -14 21 -26 40 -26 42 0 7 -88 135 -117 170 -51 62 -190
199 -245 241 -234 181 -523 298 -837 339 -96 13 -261 17 -351 8z"/>
<path d="M15440 7719 c0 -33 -4 -58 -8 -55 -5 3 -7 18 -5 33 4 30 -11 62 -23
50 -4 -4 -2 -13 4 -19 17 -17 15 -28 -5 -21 -13 5 -15 2 -10 -11 4 -10 1 -19
-7 -22 -8 -3 -13 -16 -12 -29 1 -17 4 -21 14 -13 8 8 12 7 12 -3 0 -8 -9 -20
-20 -27 -15 -9 -19 -19 -14 -40 4 -19 3 -23 -4 -13 -8 10 -14 11 -28 1 -15 -9
-15 -10 -2 -6 19 6 34 -24 17 -35 -8 -5 -6 -8 7 -11 16 -3 13 -7 -13 -21 -35
-19 -44 -31 -15 -20 15 6 15 5 4 -10 -8 -9 -24 -15 -35 -14 -16 1 -22 -3 -20
-16 0 -11 -4 -16 -11 -14 -7 3 -19 1 -27 -4 -11 -7 -11 -9 -1 -9 7 0 10 -5 6
-12 -10 -15 11 -3 63 39 23 18 46 33 51 33 6 0 8 -65 6 -167 -1 -93 -6 -167
-11 -167 -4 1 -19 4 -33 8 -25 6 -25 6 -2 -5 12 -7 22 -16 22 -21 0 -12 -8
-10 -37 10 -15 9 -24 12 -20 6 4 -6 22 -19 42 -28 40 -19 44 -31 15 -39 -13
-3 -18 -10 -14 -21 4 -11 1 -16 -11 -16 -10 0 -13 5 -9 12 4 7 -7 2 -25 -11
-20 -14 -30 -29 -27 -38 4 -10 1 -13 -13 -8 -16 5 -19 1 -18 -14 1 -23 23 -36
33 -19 5 7 2 8 -6 3 -9 -5 -11 -4 -6 4 4 6 12 9 17 5 5 -3 28 11 51 30 23 20
45 36 49 36 9 0 17 -313 9 -336 -5 -13 -12 -11 -37 13 -62 57 -79 69 -92 65
-8 -3 -12 -1 -9 4 3 5 -11 23 -30 39 l-36 30 25 -35 c29 -42 50 -60 64 -53 5
2 2 -2 -8 -10 -16 -13 -16 -15 -2 -21 9 -3 14 -2 11 3 -3 5 1 12 10 15 12 4
14 1 9 -14 -4 -12 -2 -20 5 -20 6 0 8 5 5 10 -3 6 -1 10 4 10 6 0 11 -7 11
-15 0 -7 8 -19 18 -24 14 -9 14 -12 4 -19 -11 -7 -10 -10 3 -16 24 -9 32 -7
15 4 -8 5 -10 10 -4 10 21 0 24 -14 8 -39 -9 -14 -13 -23 -9 -18 5 4 17 0 27
-9 14 -13 15 -20 7 -31 -6 -7 -8 -13 -3 -13 5 0 9 -74 9 -164 0 -156 -1 -164
-18 -154 -10 5 -20 15 -23 23 -3 8 -12 11 -20 8 -8 -3 -14 1 -14 8 0 11 -3 11
-10 -1 -15 -23 -12 -29 25 -51 41 -25 43 -32 13 -48 -21 -10 -21 -11 -2 -6 12
3 30 2 40 -2 17 -6 17 -8 -6 -14 l-25 -7 27 -1 c29 -1 52 -30 42 -54 -3 -8 2
-17 10 -20 9 -4 16 -2 16 3 0 6 -4 10 -9 10 -4 0 -6 11 -4 23 3 14 -2 31 -12
40 -18 18 -12 37 10 37 9 0 12 6 9 15 -4 8 -2 15 4 15 6 0 12 -6 15 -12 3 -7
5 99 6 235 1 168 -2 246 -9 242 -14 -9 -13 18 2 33 10 10 10 17 0 32 -6 11
-12 23 -12 27 0 5 5 1 10 -7 6 -10 9 173 10 508 0 287 -2 522 -5 522 -3 0 -5
-27 -5 -61z"/>
<path d="M15397 5625 c-2 -14 0 -28 4 -31 15 -9 10 -24 -6 -18 -8 4 -15 1 -15
-5 0 -6 5 -11 10 -11 6 0 10 -7 10 -15 0 -8 -5 -15 -11 -15 -6 0 -4 -7 5 -15
10 -11 12 -23 7 -43 -4 -15 -7 -33 -5 -40 1 -7 0 -8 -3 -2 -2 5 -9 8 -14 5 -5
-4 -2 -16 6 -29 14 -21 14 -25 0 -36 -13 -11 -14 -10 -9 5 5 13 4 16 -4 11 -7
-4 -12 -14 -12 -22 0 -8 -5 -14 -11 -14 -5 0 -7 5 -4 10 8 14 -21 24 -42 15
-17 -6 -17 -7 2 -20 56 -40 73 -60 64 -77 -6 -12 -6 -18 1 -18 5 0 10 7 10 15
0 8 5 15 11 15 6 0 9 9 6 20 -6 25 8 26 23 3 10 -17 10 -16 9 2 -1 11 0 23 1
28 4 16 3 74 -2 83 -9 17 -8 64 2 64 6 0 10 -8 11 -17 0 -12 2 -14 6 -5 3 8
-5 23 -18 35 -12 11 -18 22 -12 24 6 2 9 13 6 23 -3 13 0 20 8 20 10 0 10 3 1
12 -7 7 -12 22 -12 34 0 32 -17 39 -23 9z"/>
<path d="M1866 4400 c-22 -10 -44 -17 -50 -13 -6 3 -8 2 -3 -2 12 -14 -32 -53
-54 -48 -11 3 -19 0 -19 -6 0 -7 -4 -9 -10 -6 -13 8 -13 9 6 -72 25 -110 94
-201 168 -222 42 -11 122 3 156 27 98 73 103 212 10 296 -73 66 -137 80 -204
46z"/>
<path d="M16100 4410 c-8 -5 -24 -7 -35 -5 -11 3 -14 2 -7 -1 9 -4 3 -16 -21
-39 -71 -69 -90 -164 -49 -244 12 -21 18 -42 14 -46 -4 -4 -2 -5 3 -4 6 2 28
-7 51 -18 23 -12 63 -25 90 -28 49 -6 49 -6 115 54 77 70 93 102 87 172 -4 42
-12 57 -47 93 -23 23 -38 46 -34 51 5 4 3 5 -3 2 -7 -4 -28 0 -48 8 -40 17
-94 19 -116 5z"/>
</g>
</svg>
